<svg width="15" height="14" viewBox="0 0 15 14" fill="none" xmlns="http://www.w3.org/2000/svg">
<g clip-path="url(#clip0_1_5263)">
<path d="M7.52979 0C11.3959 0 14.5298 3.1339 14.5298 7C14.5298 10.8661 11.3959 14 7.52979 14C3.66369 14 0.529785 10.8661 0.529785 7C0.529785 3.1339 3.66369 0 7.52979 0ZM7.52979 2.8C7.34414 2.8 7.16608 2.87375 7.03481 3.00502C6.90354 3.1363 6.82978 3.31435 6.82978 3.5V7C6.82983 7.18564 6.9036 7.36366 7.03489 7.4949L9.13489 9.5949C9.2669 9.72239 9.44376 9.793 9.62725 9.79134C9.81082 9.78976 9.98635 9.71618 10.1162 9.58641C10.246 9.45656 10.3195 9.28104 10.3211 9.09746C10.3228 8.91398 10.2522 8.73712 10.1247 8.6051L8.22979 6.7102V3.5C8.22979 3.31435 8.15603 3.1363 8.02476 3.00502C7.89349 2.87375 7.71543 2.8 7.52979 2.8Z" fill="#D9DADB"/>
</g>
<defs>
<clipPath id="clip0_1_5263">
<rect width="14" height="14" fill="white" transform="translate(0.529785)"/>
</clipPath>
</defs>
</svg>
