<svg width="15" height="14" viewBox="0 0 15 14" fill="none" xmlns="http://www.w3.org/2000/svg">
<g clip-path="url(#clip0_1_5258)">
<path d="M14.5298 11.0834V4.66666H0.529785V11.0834C0.529785 11.8569 0.837076 12.5988 1.38406 13.1457C1.93104 13.6927 2.6729 14 3.44645 14H11.6131C12.3866 14 13.1286 13.6927 13.6755 13.1457C14.2225 12.5988 14.5298 11.8569 14.5298 11.0834ZM5.19295 7.28934C5.19295 7.52093 5.10095 7.74305 4.93719 7.90681C4.77341 8.07058 4.5513 8.16259 4.3197 8.16259C4.0881 8.16259 3.86599 8.07058 3.70222 7.90681C3.53846 7.74305 3.44645 7.52093 3.44645 7.28934C3.44645 7.05773 3.53846 6.83562 3.70222 6.67185C3.86599 6.50808 4.0881 6.41609 4.3197 6.41609C4.5513 6.41609 4.77341 6.50808 4.93719 6.67185C5.10095 6.83562 5.19295 7.05773 5.19295 7.28934ZM5.19295 10.206C5.19295 10.4376 5.10095 10.6597 4.93719 10.8235C4.77341 10.9873 4.5513 11.0792 4.3197 11.0792C4.0881 11.0792 3.86599 10.9873 3.70222 10.8235C3.53846 10.6597 3.44645 10.4376 3.44645 10.206C3.44645 9.97439 3.53846 9.75231 3.70222 9.58851C3.86599 9.42471 4.0881 9.33275 4.3197 9.33275C4.5513 9.33275 4.77341 9.42471 4.93719 9.58851C5.10095 9.75231 5.19295 9.97439 5.19295 10.206ZM8.40362 7.28934C8.40362 7.52093 8.31161 7.74305 8.14785 7.90681C7.98409 8.07058 7.76197 8.16259 7.53037 8.16259C7.29877 8.16259 7.07666 8.07058 6.91288 7.90681C6.74912 7.74305 6.65712 7.52093 6.65712 7.28934C6.65712 7.05773 6.74912 6.83562 6.91288 6.67185C7.07666 6.50808 7.29877 6.41609 7.53037 6.41609C7.76197 6.41609 7.98409 6.50808 8.14785 6.67185C8.31161 6.83562 8.40362 7.05773 8.40362 7.28934ZM8.40362 10.206C8.40362 10.4376 8.31161 10.6597 8.14785 10.8235C7.98409 10.9873 7.76197 11.0792 7.53037 11.0792C7.29877 11.0792 7.07666 10.9873 6.91288 10.8235C6.74912 10.6597 6.65712 10.4376 6.65712 10.206C6.65712 9.97439 6.74912 9.75231 6.91288 9.58851C7.07666 9.42471 7.29877 9.33275 7.53037 9.33275C7.76197 9.33275 7.98409 9.42471 8.14785 9.58851C8.31161 9.75231 8.40362 9.97439 8.40362 10.206ZM11.6096 7.28934C11.6096 7.52093 11.5176 7.74305 11.3539 7.90681C11.1901 8.07058 10.968 8.16259 10.7364 8.16259C10.5048 8.16259 10.2826 8.07058 10.1189 7.90681C9.95511 7.74305 9.86315 7.52093 9.86315 7.28934C9.86315 7.05773 9.95511 6.83562 10.1189 6.67185C10.2826 6.50808 10.5048 6.41609 10.7364 6.41609C10.968 6.41609 11.1901 6.50808 11.3539 6.67185C11.5176 6.83562 11.6096 7.05773 11.6096 7.28934ZM14.5298 2.91666C14.5298 2.14312 14.2225 1.40125 13.6755 0.854272C13.1286 0.30729 12.3866 0 11.6131 0H3.44645C2.6729 0 1.93104 0.30729 1.38406 0.854272C0.837076 1.40125 0.529785 2.14312 0.529785 2.91666V3.5H14.5298V2.91666Z" fill="#D9DADB"/>
</g>
<defs>
<clipPath id="clip0_1_5258">
<rect width="14" height="14" fill="white" transform="translate(0.529785)"/>
</clipPath>
</defs>
</svg>
