<svg width="73" height="43" viewBox="0 0 73 43" fill="none" xmlns="http://www.w3.org/2000/svg">
<mask id="path-1-inside-1_1_10337" fill="white">
<path d="M0.290039 10.8398C0.290039 5.317 4.76719 0.839844 10.29 0.839844H62.29C67.8129 0.839844 72.29 5.317 72.29 10.8398V32.8398C72.29 38.3627 67.8129 42.8398 62.29 42.8398H10.29C4.76719 42.8398 0.290039 38.3627 0.290039 32.8398V10.8398Z"/>
</mask>
<path d="M10.29 0.839844V1.83984H62.29V0.839844V-0.160156H10.29V0.839844ZM72.29 10.8398H71.29V32.8398H72.29H73.29V10.8398H72.29ZM62.29 42.8398V41.8398H10.29V42.8398V43.8398H62.29V42.8398ZM0.290039 32.8398H1.29004V10.8398H0.290039H-0.709961V32.8398H0.290039ZM10.29 42.8398V41.8398C5.31948 41.8398 1.29004 37.8104 1.29004 32.8398H0.290039H-0.709961C-0.709961 38.915 4.21491 43.8398 10.29 43.8398V42.8398ZM72.29 32.8398H71.29C71.29 37.8104 67.2606 41.8398 62.29 41.8398V42.8398V43.8398C68.3652 43.8398 73.29 38.915 73.29 32.8398H72.29ZM62.29 0.839844V1.83984C67.2606 1.83984 71.29 5.86928 71.29 10.8398H72.29H73.29C73.29 4.76471 68.3652 -0.160156 62.29 -0.160156V0.839844ZM10.29 0.839844V-0.160156C4.21491 -0.160156 -0.709961 4.76471 -0.709961 10.8398H0.290039H1.29004C1.29004 5.86928 5.31948 1.83984 10.29 1.83984V0.839844Z" fill="#D9DADB" mask="url(#path-1-inside-1_1_10337)"/>
<path d="M24.1226 17.8398L23.4986 15.7638H20.3666L19.7426 17.8398H18.5906L21.2426 9.57184H22.6826L25.3226 17.8398H24.1226ZM20.6426 14.8398H23.2226L21.9386 10.5198L20.6426 14.8398ZM27.7975 17.9838C27.3895 17.9838 27.0655 17.8638 26.8255 17.6238C26.5935 17.3758 26.4775 17.0318 26.4775 16.5918V8.97184L27.5815 8.83984V16.5678C27.5815 16.7438 27.6095 16.8718 27.6655 16.9518C27.7295 17.0318 27.8335 17.0718 27.9775 17.0718C28.1295 17.0718 28.2655 17.0478 28.3855 16.9998L28.6735 17.7678C28.4095 17.9118 28.1175 17.9838 27.7975 17.9838ZM33.2451 17.5518C32.8291 17.8398 32.3571 17.9838 31.8291 17.9838C31.2931 17.9838 30.8731 17.8318 30.5691 17.5278C30.2731 17.2158 30.1251 16.7678 30.1251 16.1838V12.3678H29.0211V11.5158H30.1251V10.0878L31.2291 9.95584V11.5158H32.7291L32.6091 12.3678H31.2291V16.1358C31.2291 16.4638 31.2851 16.7038 31.3971 16.8558C31.5171 16.9998 31.7131 17.0718 31.9851 17.0718C32.2331 17.0718 32.5131 16.9878 32.8251 16.8198L33.2451 17.5518ZM36.8624 17.8758C36.6144 18.6118 36.2664 19.1918 35.8184 19.6158C35.3784 20.0478 34.7464 20.3078 33.9224 20.3958L33.8024 19.5318C34.2184 19.4598 34.5504 19.3558 34.7984 19.2198C35.0464 19.0838 35.2424 18.9078 35.3864 18.6918C35.5384 18.4838 35.6784 18.1998 35.8064 17.8398H35.4344L33.3104 11.5158H34.4864L36.1784 17.0358L37.8344 11.5158H38.9744L36.8624 17.8758ZM44.3092 16.3638C44.3092 16.6198 44.3532 16.8118 44.4412 16.9398C44.5292 17.0598 44.6612 17.1518 44.8372 17.2158L44.5852 17.9838C44.2572 17.9438 43.9932 17.8518 43.7932 17.7078C43.5932 17.5638 43.4452 17.3398 43.3492 17.0358C42.9252 17.6678 42.2972 17.9838 41.4652 17.9838C40.8412 17.9838 40.3492 17.8078 39.9892 17.4558C39.6292 17.1038 39.4492 16.6438 39.4492 16.0758C39.4492 15.4038 39.6892 14.8878 40.1692 14.5278C40.6572 14.1678 41.3452 13.9878 42.2332 13.9878H43.2052V13.5198C43.2052 13.0718 43.0972 12.7518 42.8812 12.5598C42.6652 12.3678 42.3332 12.2718 41.8852 12.2718C41.4212 12.2718 40.8532 12.3838 40.1812 12.6078L39.9052 11.8038C40.6892 11.5158 41.4172 11.3718 42.0892 11.3718C42.8332 11.3718 43.3892 11.5558 43.7572 11.9238C44.1252 12.2838 44.3092 12.7998 44.3092 13.4718V16.3638ZM41.7172 17.1558C42.3492 17.1558 42.8452 16.8278 43.2052 16.1718V14.7198H42.3772C41.2092 14.7198 40.6252 15.1518 40.6252 16.0158C40.6252 16.3918 40.7172 16.6758 40.9012 16.8678C41.0852 17.0598 41.3572 17.1558 41.7172 17.1558ZM50.2845 11.5158V12.3558L46.9845 16.9158H50.3205L50.1885 17.8398H45.7365V17.0118L49.0245 12.4518H46.0125V11.5158H50.2845ZM52.9188 11.5158V17.8398H51.8148V11.5158H52.9188ZM21.3292 33.8758C21.0812 34.6118 20.7332 35.1918 20.2852 35.6158C19.8452 36.0478 19.2132 36.3078 18.3892 36.3958L18.2692 35.5318C18.6852 35.4598 19.0172 35.3558 19.2652 35.2198C19.5132 35.0838 19.7092 34.9078 19.8532 34.6918C20.0052 34.4838 20.1452 34.1998 20.2732 33.8398H19.9012L17.7772 27.5158H18.9532L20.6452 33.0358L22.3012 27.5158H23.4412L21.3292 33.8758ZM27.0326 27.3718C27.9206 27.3718 28.6086 27.6678 29.0966 28.2598C29.5926 28.8518 29.8406 29.6558 29.8406 30.6718C29.8406 31.3278 29.7286 31.9078 29.5046 32.4118C29.2806 32.9078 28.9566 33.2958 28.5326 33.5758C28.1086 33.8478 27.6046 33.9838 27.0206 33.9838C26.1326 33.9838 25.4406 33.6878 24.9446 33.0958C24.4486 32.5038 24.2006 31.6998 24.2006 30.6838C24.2006 30.0278 24.3126 29.4518 24.5366 28.9558C24.7606 28.4518 25.0846 28.0638 25.5086 27.7918C25.9326 27.5118 26.4406 27.3718 27.0326 27.3718ZM27.0326 28.2598C25.9366 28.2598 25.3886 29.0678 25.3886 30.6838C25.3886 32.2918 25.9326 33.0958 27.0206 33.0958C28.1086 33.0958 28.6526 32.2878 28.6526 30.6718C28.6526 29.0638 28.1126 28.2598 27.0326 28.2598ZM33.9829 30.4558L36.1789 33.8398H34.8469L33.2989 31.1638L31.7269 33.8398H30.4789L32.6869 30.5038L30.7309 27.5158H32.0269L33.3469 29.8318L34.6789 27.5158H35.9269L33.9829 30.4558ZM42.1737 24.9718V33.8398H41.2017L41.0937 32.9638C40.8857 33.2838 40.6257 33.5358 40.3137 33.7198C40.0017 33.8958 39.6537 33.9838 39.2697 33.9838C38.5177 33.9838 37.9297 33.6878 37.5057 33.0958C37.0897 32.5038 36.8817 31.7078 36.8817 30.7078C36.8817 30.0598 36.9817 29.4838 37.1817 28.9798C37.3817 28.4758 37.6697 28.0838 38.0457 27.8038C38.4217 27.5158 38.8617 27.3718 39.3657 27.3718C40.0137 27.3718 40.5817 27.6318 41.0697 28.1518V24.8398L42.1737 24.9718ZM39.5097 33.1078C39.8457 33.1078 40.1337 33.0318 40.3737 32.8798C40.6137 32.7198 40.8457 32.4838 41.0697 32.1718V29.0758C40.8617 28.8038 40.6377 28.5998 40.3977 28.4638C40.1657 28.3198 39.9017 28.2478 39.6057 28.2478C39.1177 28.2478 38.7377 28.4518 38.4657 28.8598C38.2017 29.2678 38.0697 29.8758 38.0697 30.6838C38.0697 31.4998 38.1937 32.1078 38.4417 32.5078C38.6897 32.9078 39.0457 33.1078 39.5097 33.1078ZM49.1536 33.8398H48.2056L48.1216 32.8558C47.8816 33.2478 47.6056 33.5358 47.2936 33.7198C46.9816 33.8958 46.6016 33.9838 46.1536 33.9838C45.6016 33.9838 45.1696 33.8158 44.8576 33.4798C44.5456 33.1438 44.3896 32.6678 44.3896 32.0518V27.5158H45.4936V31.9318C45.4936 32.3638 45.5696 32.6718 45.7216 32.8558C45.8736 33.0318 46.1216 33.1198 46.4656 33.1198C47.0816 33.1198 47.6096 32.7558 48.0496 32.0278V27.5158H49.1536V33.8398ZM54.1819 27.3718C54.4059 27.3718 54.6139 27.3958 54.8059 27.4438L54.6019 28.5238C54.4099 28.4758 54.2259 28.4518 54.0499 28.4518C53.6579 28.4518 53.3419 28.5958 53.1019 28.8838C52.8619 29.1718 52.6739 29.6198 52.5379 30.2278V33.8398H51.4339V27.5158H52.3819L52.4899 28.7998C52.6579 28.3278 52.8859 27.9718 53.1739 27.7318C53.4619 27.4918 53.7979 27.3718 54.1819 27.3718Z" fill="white"/>
</svg>
