<svg width="55" height="41" viewBox="0 0 55 41" fill="none" xmlns="http://www.w3.org/2000/svg">
<mask id="path-1-inside-1_1_10244" fill="white">
<path d="M0.290039 10.0898C0.290039 4.567 4.76719 0.0898438 10.29 0.0898438H44.29C49.8129 0.0898438 54.29 4.567 54.29 10.0898V30.0898C54.29 35.6127 49.8129 40.0898 44.29 40.0898H10.29C4.76719 40.0898 0.290039 35.6127 0.290039 30.0898V10.0898Z"/>
</mask>
<path d="M10.29 0.0898438V1.08984H44.29V0.0898438V-0.910156H10.29V0.0898438ZM54.29 10.0898H53.29V30.0898H54.29H55.29V10.0898H54.29ZM44.29 40.0898V39.0898H10.29V40.0898V41.0898H44.29V40.0898ZM0.290039 30.0898H1.29004V10.0898H0.290039H-0.709961V30.0898H0.290039ZM10.29 40.0898V39.0898C5.31948 39.0898 1.29004 35.0604 1.29004 30.0898H0.290039H-0.709961C-0.709961 36.165 4.21491 41.0898 10.29 41.0898V40.0898ZM54.29 30.0898H53.29C53.29 35.0604 49.2606 39.0898 44.29 39.0898V40.0898V41.0898C50.3652 41.0898 55.29 36.165 55.29 30.0898H54.29ZM44.29 0.0898438V1.08984C49.2606 1.08984 53.29 5.11928 53.29 10.0898H54.29H55.29C55.29 4.01471 50.3652 -0.910156 44.29 -0.910156V0.0898438ZM10.29 0.0898438V-0.910156C4.21491 -0.910156 -0.709961 4.01471 -0.709961 10.0898H0.290039H1.29004C1.29004 5.11928 5.31948 1.08984 10.29 1.08984V0.0898438Z" fill="#D9DADB" mask="url(#path-1-inside-1_1_10244)"/>
<path d="M23.1089 17.0898L22.4849 15.0138H19.3529L18.7289 17.0898H17.5769L20.2289 8.82184H21.6689L24.3089 17.0898H23.1089ZM19.6289 14.0898H22.2089L20.9249 9.76984L19.6289 14.0898ZM30.1078 8.82184V9.74584L26.0158 16.1178H30.1078L29.9758 17.0898H24.7438V16.1778L28.8718 9.78184H25.1758V8.82184H30.1078ZM36.3293 8.82184L36.1973 9.73384H32.9933V12.4338H35.7773V13.3458H32.9933V16.1778H36.4253V17.0898H31.8533V8.82184H36.3293Z" fill="white"/>
<path d="M21.4571 27.6998C21.8171 27.6998 22.1405 27.7498 22.4271 27.8498C22.7138 27.9498 22.9871 28.0998 23.2471 28.2998L22.8571 28.8798C22.6171 28.7265 22.3871 28.6132 22.1671 28.5398C21.9538 28.4665 21.7271 28.4298 21.4871 28.4298C21.1871 28.4298 20.9505 28.4932 20.7771 28.6198C20.6038 28.7398 20.5171 28.9065 20.5171 29.1198C20.5171 29.3332 20.5971 29.4998 20.7571 29.6198C20.9238 29.7398 21.2205 29.8565 21.6471 29.9698C22.2338 30.1165 22.6705 30.3165 22.9571 30.5698C23.2505 30.8232 23.3971 31.1698 23.3971 31.6098C23.3971 32.1298 23.1938 32.5265 22.7871 32.7998C22.3871 33.0732 21.8971 33.2098 21.3171 33.2098C20.5171 33.2098 19.8538 32.9798 19.3271 32.5198L19.8171 31.9598C20.2638 32.2998 20.7571 32.4698 21.2971 32.4698C21.6438 32.4698 21.9171 32.3998 22.1171 32.2598C22.3238 32.1132 22.4271 31.9165 22.4271 31.6698C22.4271 31.4898 22.3905 31.3465 22.3171 31.2398C22.2438 31.1265 22.1171 31.0298 21.9371 30.9498C21.7571 30.8632 21.4938 30.7732 21.1471 30.6798C20.5871 30.5332 20.1805 30.3365 19.9271 30.0898C19.6805 29.8432 19.5571 29.5298 19.5571 29.1498C19.5571 28.8765 19.6371 28.6298 19.7971 28.4098C19.9638 28.1832 20.1905 28.0098 20.4771 27.8898C20.7705 27.7632 21.0971 27.6998 21.4571 27.6998ZM28.6151 33.0898H27.8251L27.7551 32.2698C27.5551 32.5965 27.3251 32.8365 27.0651 32.9898C26.8051 33.1365 26.4885 33.2098 26.1151 33.2098C25.6551 33.2098 25.2951 33.0698 25.0351 32.7898C24.7751 32.5098 24.6451 32.1132 24.6451 31.5998V27.8198H25.5651V31.4998C25.5651 31.8598 25.6285 32.1165 25.7551 32.2698C25.8818 32.4165 26.0885 32.4898 26.3751 32.4898C26.8885 32.4898 27.3285 32.1865 27.6951 31.5798V27.8198H28.6151V33.0898ZM32.9254 27.6998C33.5254 27.6998 34.0021 27.9432 34.3554 28.4298C34.7088 28.9098 34.8854 29.5832 34.8854 30.4498C34.8854 30.9965 34.8021 31.4798 34.6354 31.8998C34.4688 32.3132 34.2288 32.6365 33.9154 32.8698C33.6021 33.0965 33.2354 33.2098 32.8154 33.2098C32.2621 33.2098 31.7954 32.9765 31.4154 32.5098L31.3254 33.0898H30.5154V25.6998L31.4354 25.5898V28.4798C31.8154 27.9598 32.3121 27.6998 32.9254 27.6998ZM32.5954 32.4798C33.0021 32.4798 33.3188 32.3165 33.5454 31.9898C33.7788 31.6565 33.8954 31.1432 33.8954 30.4498C33.8954 29.7365 33.7888 29.2232 33.5754 28.9098C33.3621 28.5898 33.0588 28.4298 32.6654 28.4298C32.1988 28.4298 31.7888 28.7032 31.4354 29.2498V31.7698C31.5754 31.9898 31.7454 32.1632 31.9454 32.2898C32.1521 32.4165 32.3688 32.4798 32.5954 32.4798Z" fill="white"/>
</svg>
